<svg width="20" height="20" viewBox="0 0 20 20" fill="none" xmlns="http://www.w3.org/2000/svg">
<path d="M0 10C1.14805e-07 8.68678 0.258658 7.38642 0.761204 6.17316C1.26375 4.95991 2.00035 3.85751 2.92893 2.92893C3.85752 2.00034 4.95991 1.26375 6.17317 0.761202C7.38642 0.258655 8.68678 -1.94271e-06 10 -1.8279e-06C11.3132 -1.7131e-06 12.6136 0.258656 13.8268 0.761204C15.0401 1.26375 16.1425 2.00035 17.0711 2.92893C17.9997 3.85752 18.7362 4.95991 19.2388 6.17317C19.7413 7.38642 20 8.68678 20 10L10 10L0 10Z" fill="url(#paint0_linear_270_5350)" fill-opacity="0.5"/>
<path fill-rule="evenodd" clip-rule="evenodd" d="M10.0001 18.5C14.6945 18.5 18.5001 14.6944 18.5001 10C18.5001 5.30558 14.6945 1.5 10.0001 1.5C5.3057 1.5 1.50012 5.30558 1.50012 10C1.50012 14.6944 5.3057 18.5 10.0001 18.5ZM10.0001 20C15.523 20 20.0001 15.5228 20.0001 10C20.0001 4.47715 15.523 0 10.0001 0C4.47727 0 0.00012207 4.47715 0.00012207 10C0.00012207 15.5228 4.47727 20 10.0001 20Z" fill="#F33C3C"/>
<path d="M13.6364 10C13.6364 12.0083 12.0083 13.6364 10 13.6364C7.9917 13.6364 6.36365 12.0083 6.36365 10C6.36365 7.9917 7.9917 6.36365 10 6.36365C12.0083 6.36365 13.6364 7.9917 13.6364 10Z" fill="#FEFEFE"/>
<path fill-rule="evenodd" clip-rule="evenodd" d="M10 12.1364C11.1799 12.1364 12.1364 11.1799 12.1364 10C12.1364 8.82013 11.1799 7.86365 10 7.86365C8.82013 7.86365 7.86365 8.82013 7.86365 10C7.86365 11.1799 8.82013 12.1364 10 12.1364ZM10 13.6364C12.0083 13.6364 13.6364 12.0083 13.6364 10C13.6364 7.9917 12.0083 6.36365 10 6.36365C7.9917 6.36365 6.36365 7.9917 6.36365 10C6.36365 12.0083 7.9917 13.6364 10 13.6364Z" fill="#F33C3C"/>
<path fill-rule="evenodd" clip-rule="evenodd" d="M0.00012207 9.25H6.8183V10.75H0.00012207V9.25Z" fill="#F33C3C"/>
<path fill-rule="evenodd" clip-rule="evenodd" d="M12.5876 9.25L18.8814 9.25L18.8814 10.75L12.5876 10.75L12.5876 9.25Z" fill="#F33C3C"/>
<defs>
<linearGradient id="paint0_linear_270_5350" x1="23" y1="-4.84659e-06" x2="-3" y2="9.49999" gradientUnits="userSpaceOnUse">
<stop stop-color="#F33C3C"/>
<stop offset="1" stop-color="#F33C3C" stop-opacity="0"/>
</linearGradient>
</defs>
</svg>
